<svg class="linkace-logo svg" width="1000" height="291" viewBox="0 0 1000 291" xmlns="http://www.w3.org/2000/svg">
    <!-- (C) Copyright 2020 LinkAce / Kevin Woblick -->
    <g fill="none" fill-rule="evenodd">
        <path d="M323 228.634v-31.332h-61.09V66.634H227v162h96zm33.5-127c12.907 0 18.5-6.643 18.5-15.643v-4.714c0-9-5.593-15.643-18.5-15.643S338 72.277 338 81.277v4.714c0 9 5.593 15.643 18.5 15.643zm16.5 128v-115h-33v115h33zm56.216 0v-74.711c0-11.427 10.23-16.92 20.678-16.92 11.755 0 15.89 7.251 15.89 21.974v69.657H498V157.34c0-29.006-12.407-45.706-35.698-45.706-18.067 0-27.645 10.108-31.78 22.194h-1.306V114.27H397v115.363h32.216zm124.123-1v-32.4l14.42-16.2 25.784 48.6H632l-42.608-70.93 38.238-44.002h-35.835l-22.943 27.364-14.202 21.236h-1.311V66.634H521v162h32.339zm113.475 0l11.628-38.527h54.186l11.628 38.527H781l-52.79-162h-43.722l-53.488 162h35.814zm57.186-68h-37l17.806-61h1.156l18.038 61zm116.493 71c22.49 0 38.865-9.836 46.507-31.694l-25.11-10.929c-3.274 9.18-8.514 17.05-21.397 17.05-13.1 0-19.869-9.181-19.869-23.607v-21.421c0-14.426 6.769-23.825 19.87-23.825 11.353 0 17.685 6.994 19.65 15.737l26.201-11.366c-6.769-18.798-22.707-29.945-45.852-29.945-34.497 0-53.493 23.17-53.493 59.89 0 36.722 18.996 60.11 53.493 60.11zm107.536 0c20.963 0 37.777-7.213 48.04-19.016l-16.159-20.11c-7.206 7.432-14.63 13.77-28.17 13.77-17.25 0-25.33-9.617-25.33-24.699v-1.748H1000v-9.618c0-31.038-15.286-58.58-53.282-58.58-34.502 0-53.718 23.608-53.718 59.892 0 36.721 19.871 60.109 55.029 60.109zm17.971-70h-40v-1.724c0-14.009 8.043-23.276 20.87-23.276 12.826 0 19.13 9.267 19.13 23.06v1.94z"
              fill="#FFF" fill-rule="nonzero"/>
        <path d="M39.58 214.884l-.7-119.608a21.68 21.68 0 016.41-15.562 21.926 21.926 0 0115.649-6.375h0c12.295.133 22.194 9.977 22.328 22.205l.739 143.63c.177 26.097-17.337 44.943-39.117 44.826-21.78-.118-37.686-14.428-37.744-44.286L6.003 60.858c-.148-14.299 5.52-28.084 15.718-38.224A53.763 53.763 0 0160.158 7.003h0c30.207.276 54.537 24.471 54.815 54.511L116 217.566"
              stroke="#FFF" stroke-width="14" stroke-linecap="round"/>
    </g>
</svg>
