<svg class="linkace-logo svg" width="761" height="234" viewBox="0 0 761 234" xmlns="http://www.w3.org/2000/svg">
  <!-- (C) 2018 Copyright by Kovah.de -->
  <g fill="none" fill-rule="evenodd">
    <path class="svg-path" fill="#44679F" fill-rule="nonzero"
          d="M186.219 62.267v87.573h52.38v27.008h-82.662V62.268h30.282zm63.02 114.58V98.279h27.826v78.57h-27.827zm29.79-105.086c0 5.456-1.582 9.384-4.747 11.786-3.164 2.4-6.874 3.6-11.13 3.6-2.074 0-4.065-.3-5.975-.9a14.386 14.386 0 0 1-5.074-2.782c-1.473-1.256-2.647-2.837-3.52-4.747-.872-1.91-1.309-4.228-1.309-6.957 0-2.619.437-4.91 1.31-6.875.872-1.964 2.046-3.547 3.519-4.747 1.473-1.2 3.164-2.1 5.074-2.7a19.812 19.812 0 0 1 5.975-.9c4.256 0 7.966 1.2 11.13 3.6 3.165 2.401 4.747 6.275 4.747 11.622zm39.449 35.52c3.274-3.492 6.956-6.274 11.049-8.348 4.092-2.074 8.757-3.11 13.995-3.11 5.347 0 10.012.846 13.995 2.537 3.983 1.691 7.256 4.01 9.821 6.957 2.565 2.946 4.474 6.384 5.73 10.312 1.255 3.929 1.882 8.075 1.882 12.44v48.779h-27.827v-45.014c0-4.146-1.118-7.23-3.356-9.248-2.237-2.019-5.102-3.028-8.593-3.028-3.164 0-5.893.764-8.185 2.291-2.291 1.528-4.037 3.056-5.237 4.583v50.416h-27.827v-78.57h24.553v9.003zm125.384 69.567l-19.315-29.791h-5.893v29.79h-27.827V62.268h27.827v63.51h6.22l17.187-27.499h31.1l-25.534 38.63 27.172 39.94h-30.937zm30.61 0l45.013-114.58h32.737l45.014 114.58h-31.1l-6.548-18.006H512.12l-6.547 18.006h-31.1zm46.65-42.559h29.463L538.8 101.225a45.263 45.263 0 0 1-1.473-4.584c-.437-1.636-.928-3.982-1.473-7.038-.546 3.056-1.037 5.402-1.474 7.038a45.263 45.263 0 0 1-1.473 4.584l-11.785 33.064zm78.242 4.911c0-7.747 1.31-14.377 3.929-19.888 2.619-5.511 6.056-10.012 10.312-13.504 4.256-3.492 9.112-6.056 14.568-7.693 5.456-1.637 10.967-2.456 16.532-2.456 4.256 0 8.458.464 12.604 1.392 4.147.928 8.02 2.264 11.622 4.01v23.735c-2.729-1.528-5.865-2.81-9.412-3.847-3.547-1.036-7.066-1.555-10.558-1.555-2.728 0-5.347.327-7.857.982s-4.747 1.691-6.711 3.11c-1.964 1.419-3.52 3.274-4.665 5.565-1.146 2.292-1.719 5.129-1.719 8.512 0 3.164.573 5.865 1.719 8.103 1.146 2.237 2.647 4.092 4.501 5.565 1.855 1.473 4.038 2.565 6.548 3.274a28.154 28.154 0 0 0 7.693 1.064c4.146 0 8.048-.491 11.704-1.474 3.655-.982 6.847-2.237 9.575-3.764v23.734c-3.928 1.637-8.156 2.919-12.685 3.847-4.53.928-9.303 1.391-14.323 1.391-5.456 0-10.803-.79-16.041-2.373-5.238-1.583-9.876-4.01-13.914-7.284s-7.284-7.42-9.739-12.44c-2.455-5.02-3.683-11.022-3.683-18.006zm80.207-1.637c0-7.639 1.337-14.131 4.01-19.479 2.673-5.347 6.056-9.657 10.148-12.93 4.093-3.275 8.566-5.648 13.423-7.121 4.856-1.473 9.412-2.21 13.668-2.21 8.402 0 15.386 1.5 20.951 4.501 5.566 3.001 9.876 6.875 12.932 11.622 3.055 4.747 4.91 10.095 5.565 16.041.655 5.947.273 11.922-1.146 17.924h-51.397c.764 2.182 1.964 4.038 3.6 5.565 1.638 1.528 3.574 2.783 5.812 3.765 2.237.982 4.692 1.691 7.365 2.128 2.674.437 5.43.655 8.267.655 4.473 0 8.539-.327 12.194-.982 3.656-.655 7.12-1.583 10.394-2.783v20.625c-3.71 1.31-7.938 2.373-12.685 3.192-4.747.818-10.23 1.227-16.45 1.227-6.439 0-12.495-.9-18.17-2.7-5.675-1.801-10.612-4.474-14.814-8.021-4.201-3.547-7.53-7.911-9.985-13.095-2.455-5.184-3.682-11.158-3.682-17.924zm54.18-8.348c.218-.982.218-2.21 0-3.683-.218-1.473-.764-2.919-1.637-4.338-.873-1.418-2.182-2.646-3.929-3.682-1.746-1.037-3.982-1.556-6.71-1.556-3.82 0-7.121 1.174-9.904 3.52-2.782 2.346-4.174 5.593-4.174 9.74h26.354z"/>
    <path class="svg-stroke" stroke="#44679F" stroke-width="12" stroke-linecap="round"
          d="M33.128 172.162l-.554-95.313a17.326 17.326 0 0 1 5.08-12.402 17.326 17.326 0 0 1 12.4-5.079c9.745.105 17.59 7.95 17.695 17.693l.586 114.458c.14 20.797-13.74 35.815-31 35.721-17.259-.092-29.865-11.497-29.91-35.29L6.518 49.42a42.484 42.484 0 0 1 12.456-30.46 42.494 42.494 0 0 1 30.46-12.457c23.94.222 43.22 19.503 43.44 43.44l.814 124.358"/>
  </g>
</svg>
