<svg width="300" height="300" viewBox="0 0 300 300" xmlns="http://www.w3.org/2000/svg">
  <style>@media (prefers-color-scheme: dark) { path { stroke: #fff; } }</style>
  <path d="M79.9 200.158l98.244-99.193a25.43 25.43 0 0118.124-7.575 25.43 25.43 0 0118.124 7.575h0c9.993 10.192 9.993 26.424 0 36.616L96.334 256.613c-21.417 21.664-51.376 22.84-69.174 4.886-17.798-17.955-19.044-42.797 5.577-67.463L179.568 45.629C191.26 33.718 207.306 27 224.063 27c16.756 0 32.802 6.718 44.494 18.629h0c24.59 24.996 24.59 64.895 0 89.892L140.472 265.03"
        stroke="#44679F" stroke-width="14" fill="none" fill-rule="evenodd" stroke-linecap="round"/>
</svg>
