<?xml version="1.0" standalone="no"?>
<!DOCTYPE svg PUBLIC "-//W3C//DTD SVG 20010904//EN"
 "http://www.w3.org/TR/2001/REC-SVG-20010904/DTD/svg10.dtd">
<svg version="1.0" xmlns="http://www.w3.org/2000/svg"
 width="256.000000pt" height="256.000000pt" viewBox="0 0 256.000000 256.000000"
 preserveAspectRatio="xMidYMid meet">
<metadata>
Created by potrace 1.11, written by Peter Selinger 2001-2013
</metadata>
<g transform="translate(0.000000,256.000000) scale(0.100000,-0.100000)"
fill="#000000" stroke="none">
<path d="M1805 2380 c-71 -14 -158 -49 -215 -86 -30 -20 -183 -165 -339 -323
-1170 -1181 -1086 -1093 -1139 -1194 -87 -164 -60 -345 71 -481 93 -95 197
-138 324 -131 37 2 77 6 88 9 58 13 141 52 192 90 85 63 1109 1100 1136 1150
30 57 31 192 2 251 -24 48 -83 107 -130 130 -88 41 -201 32 -274 -22 -20 -14
-161 -152 -314 -307 -153 -154 -348 -351 -433 -437 -125 -127 -154 -160 -151
-180 5 -31 49 -63 74 -55 11 4 213 202 449 441 235 239 443 442 460 450 67 32
151 11 194 -47 31 -42 39 -122 16 -167 -22 -41 -1057 -1083 -1115 -1122 -66
-43 -158 -69 -232 -64 -185 11 -321 189 -279 364 26 111 4 87 1141 1232 337
338 361 357 507 381 201 34 412 -77 501 -265 35 -74 41 -99 46 -193 6 -112
-31 -228 -97 -312 -15 -19 -276 -286 -580 -593 -303 -307 -555 -565 -560 -572
-23 -37 7 -87 53 -87 24 0 89 64 963 950 253 257 285 300 324 449 20 72 24
211 8 269 -3 12 -8 30 -10 40 -41 180 -206 352 -396 413 -70 23 -216 32 -285
19z"/>
</g>
</svg>
